<svg width="82" height="82" viewBox="0 0 82 82" fill="none" xmlns="http://www.w3.org/2000/svg">
<path d="M8 41.5C8 23.5507 22.5507 9 40.5 9C58.4493 9 73 23.5507 73 41.5C73 59.4493 58.4493 74 40.5 74C22.5507 74 8 59.4493 8 41.5Z" fill="#D9D9D9"/>
<path d="M34.9972 18.5971L53.3 19.6957L63.4028 34.9971L42.9028 70.5042L14.4972 54.1042L34.9972 18.5971Z" fill="#6A54FE"/>
<path d="M45.1 33.8985L45.8564 39.9104L51.4676 42.197L47.7514 46.9829L50.1023 52.5675L44.0904 53.3239L41.8038 58.9352L37.0179 55.219L31.4333 57.5699L30.6769 51.558L25.0656 49.2714L28.7818 44.4855L26.4309 38.9009L32.4428 38.1445L34.7294 32.5332L39.5153 36.2494L45.1 33.8985Z" fill="#FFD400"/>
<ellipse cx="39.7298" cy="51.1949" rx="2.1525" ry="2.1525" transform="rotate(30 39.7298 51.1949)" stroke="#F1F2F6" stroke-width="3"/>
<circle cx="36.8034" cy="40.2735" r="2.1525" transform="rotate(30 36.8034 40.2735)" stroke="#F1F2F6" stroke-width="3"/>
<path d="M46.6677 43.4831L29.8656 47.9852" stroke="#F1F2F6" stroke-width="3"/>
<ellipse cx="49.5416" cy="26.2053" rx="3.41667" ry="3.41667" transform="rotate(30 49.5416 26.2053)" fill="#FFD400"/>
</svg>
