<svg width="65" height="65" viewBox="0 0 65 65" fill="none" xmlns="http://www.w3.org/2000/svg">
<path d="M0 32.5C0 14.5507 14.5507 0 32.5 0C50.4493 0 65 14.5507 65 32.5C65 50.4493 50.4493 65 32.5 65C14.5507 65 0 50.4493 0 32.5Z" fill="#D9D9D9"/>
<path d="M21 36.5H45V52.5L33 46.7857L21 52.5V36.5Z" fill="#56A4F8" fill-opacity="0.5"/>
<circle cx="33" cy="28" r="16" fill="#1D86F5"/>
<circle cx="33" cy="28" r="9.5" fill="#56A4F8" fill-opacity="0.5"/>
<path d="M33 16L36.3856 23.3401L44.4127 24.2918L38.4781 29.7799L40.0534 37.7082L33 33.76L25.9466 37.7082L27.5219 29.7799L21.5873 24.2918L29.6144 23.3401L33 16Z" fill="#F1F2F6"/>
</svg>
